<svg xmlns="http://www.w3.org/2000/svg" data-name="Layer 16" viewBox="0 0 64 80" x="0px" y="0px"><path d="m32.02,49.3c-9.18,0-16.65-7.47-16.65-16.65s7.47-16.65,16.65-16.65,16.65,7.47,16.65,16.65-7.47,16.65-16.65,16.65Zm0-31.3c-8.08,0-14.65,6.57-14.65,14.65s6.57,14.65,14.65,14.65,14.65-6.57,14.65-14.65-6.57-14.65-14.65-14.65Z"/><g><path d="m10.07,26.5c-2.85,0-5.17-2.32-5.17-5.17v-3.91c0-.55.45-1,1-1s1,.45,1,1v3.91c0,1.75,1.42,3.17,3.17,3.17s3.17-1.42,3.17-3.17v-3.91c0-.55.45-1,1-1s1,.45,1,1v3.91c0,2.85-2.32,5.17-5.17,5.17Z"/><path d="m10.07,38.09c-.55,0-1-.45-1-1v-19.68c0-.55.45-1,1-1s1,.45,1,1v19.68c0,.55-.45,1-1,1Z"/><path d="m11.15,48.89h-2.17c-1.1,0-2-.9-2-2v-8.43c0-1.1.9-2,2-2h2.17c1.1,0,2,.9,2,2v8.43c0,1.1-.9,2-2,2Zm-2.17-10.43v8.43h2.17v-8.43h-2.17Z"/></g><g><path d="m57.11,38.87c-.55,0-1-.45-1-1v-4.17c0-.55.45-1,1-1s1,.45,1,1v4.17c0,.55-.45,1-1,1Z"/><path d="m56.11,49.3h-2.17c-1.1,0-2-.9-2-2v-8.43c0-1.1.9-2,2-2h2.17c1.1,0,2,.9,2,2v8.43c0,1.1-.9,2-2,2Zm-2.17-10.43v8.43h2.17v-8.43h-2.17Z"/><path d="m57.11,34.7h-4.17c-1.13,0-2.04-.92-2.04-2.04v-10.43c0-3.43,2.79-6.22,6.22-6.22.55,0,1,.45,1,1v16.69c0,.55-.45,1-1,1Zm-1-16.57c-1.84.45-3.22,2.12-3.22,4.1v10.43l3.22.03v-14.56Z"/></g><path d="m32.02,45.13c-6.88,0-12.48-5.6-12.48-12.48s5.6-12.48,12.48-12.48,12.48,5.6,12.48,12.48-5.6,12.48-12.48,12.48Zm0-22.96c-5.78,0-10.48,4.7-10.48,10.48s4.7,10.48,10.48,10.48,10.48-4.7,10.48-10.48-4.7-10.48-10.48-10.48Z"/><text x="0" y="79" fill="#000000" font-size="5px" font-weight="bold" font-family="'Helvetica Neue', Helvetica, Arial-Unicode, Arial, Sans-serif">Created by Hello Supay</text><text x="0" y="84" fill="#000000" font-size="5px" font-weight="bold" font-family="'Helvetica Neue', Helvetica, Arial-Unicode, Arial, Sans-serif">from the Noun Project</text></svg>