<svg xmlns="http://www.w3.org/2000/svg" xmlns:xlink="http://www.w3.org/1999/xlink" version="1.1" x="0px" y="0px" viewBox="0 0 2000 2500" style="enable-background:new 0 0 2000 2000;" xml:space="preserve"><g><path d="M1419.7,641.1H580.3c-42.9,0-77.7,34.9-77.7,77.7v87.3c0,7,5.6,12.6,12.6,12.6h40v462.5c0,42.9,34.9,77.7,77.7,77.7h734.2   c42.9,0,77.7-34.9,77.7-77.7V818.7h40c7,0,12.6-5.6,12.6-12.6v-87.3C1497.5,675.9,1462.6,641.1,1419.7,641.1z M1419.6,1281.2   c0,28.9-23.5,52.5-52.5,52.5H632.9c-28.9,0-52.5-23.5-52.5-52.5V818.7h839.2V1281.2z M1472.2,793.4h-40H567.8h-40v-74.7   c0-28.9,23.5-52.5,52.5-52.5h839.5c28.9,0,52.5,23.5,52.5,52.5V793.4z"/><path d="M713.7,1282.7h101.2c7,0,12.6-5.6,12.6-12.6c0-7-5.6-12.6-12.6-12.6H713.7c-21,0-38.2-17.1-38.2-38.2v-188.8   c0-7-5.6-12.6-12.6-12.6c-7,0-12.6,5.6-12.6,12.6v188.8C650.3,1254.3,678.7,1282.7,713.7,1282.7z"/></g><text x="0" y="2015" fill="#000000" font-size="5px" font-weight="bold" font-family="'Helvetica Neue', Helvetica, Arial-Unicode, Arial, Sans-serif">Created by Deni Sudibyo</text><text x="0" y="2020" fill="#000000" font-size="5px" font-weight="bold" font-family="'Helvetica Neue', Helvetica, Arial-Unicode, Arial, Sans-serif">from the Noun Project</text></svg>